HIERARCHY
ROOT RootJoint
{
    OFFSET   0.000000   0.000000   0.000000
    CHANNELS 6 Xposition Yposition Zposition Xrotation Yrotation Zrotation
    JOINT pelvis_lowerback
    {
        OFFSET   0.000000   0.093605   0.000000
        CHANNELS 3 Xrotation Yrotation Zrotation
        JOINT lowerback_torso
        {
            OFFSET   0.000000   0.100000   0.000000
            CHANNELS 3 Xrotation Yrotation Zrotation
            JOINT torso_head
            {
                OFFSET   0.000000   0.282350   0.000000
                CHANNELS 3 Xrotation Yrotation Zrotation
                End Site
                {
                    OFFSET   0.000000   0.192650   0.000000
                }
            }
            JOINT rTorso_Clavicle
            {
                OFFSET  -0.001000   0.157500   0.000000
                CHANNELS 3 Xrotation Yrotation Zrotation
                JOINT rShoulder
                {
                    OFFSET  -0.117647   0.000000   0.000000
                    CHANNELS 3 Xrotation Yrotation Zrotation
                    JOINT rElbow
                    {
                        OFFSET  -0.245000   0.000000   0.000000
                        CHANNELS 3 Xrotation Yrotation Zrotation
                        JOINT rWrist
                        {
                            OFFSET  -0.240000   0.000000   0.000000
                            CHANNELS 3 Xrotation Yrotation Zrotation
                            End Site
                            {
                                OFFSET  -0.116353  -0.002500   0.000000
                            }
                        }
                    }
                }
            }
            JOINT lTorso_Clavicle
            {
                OFFSET   0.001000   0.157500   0.000000
                CHANNELS 3 Xrotation Yrotation Zrotation
                JOINT lShoulder
                {
                    OFFSET   0.117647   0.000000   0.000000
                    CHANNELS 3 Xrotation Yrotation Zrotation
                    JOINT lElbow
                    {
                        OFFSET   0.245000   0.000000   0.000000
                        CHANNELS 3 Xrotation Yrotation Zrotation
                        JOINT lWrist
                        {
                            OFFSET   0.240000   0.000000   0.000000
                            CHANNELS 3 Xrotation Yrotation Zrotation
                            End Site
                            {
                                OFFSET   0.116353  -0.002500   0.000000
                            }
                        }
                    }
                }
            }
        }
    }
    JOINT rHip
    {
        OFFSET  -0.100000  -0.051395   0.000000
        CHANNELS 3 Xrotation Yrotation Zrotation
        JOINT rKnee
        {
            OFFSET   0.000000  -0.410000   0.000000
            CHANNELS 3 Xrotation Yrotation Zrotation
            JOINT rAnkle
            {
                OFFSET   0.000000  -0.390000   0.000000
                CHANNELS 3 Xrotation Yrotation Zrotation
                JOINT rToeJoint
                {
                    OFFSET   0.000000  -0.050000   0.130000
                    CHANNELS 3 Xrotation Yrotation Zrotation
                    End Site
                    {
                        OFFSET  -0.010000   0.002000   0.060000
                    }
                }
            }
        }
    }
    JOINT lHip
    {
        OFFSET   0.100000  -0.051395   0.000000
        CHANNELS 3 Xrotation Yrotation Zrotation
        JOINT lKnee
        {
            OFFSET   0.000000  -0.410000   0.000000
            CHANNELS 3 Xrotation Yrotation Zrotation
            JOINT lAnkle
            {
                OFFSET   0.000000  -0.390000   0.000000
                CHANNELS 3 Xrotation Yrotation Zrotation
                JOINT lToeJoint
                {
                    OFFSET   0.000000  -0.050000   0.130000
                    CHANNELS 3 Xrotation Yrotation Zrotation
                    End Site
                    {
                        OFFSET   0.010000   0.002000   0.060000
                    }
                }
            }
        }
    }
}
MOTION
Frames: 14
Frame Time:   0.008333
 -2.348182   0.712220   3.927980   7.586045  -3.571714  -3.016062  25.931120   1.212176  -0.275829  -6.621538  -0.495005   1.616971 -15.573747   0.921107  -0.774191  -4.825419  12.203028   4.821025   2.344124  14.289241  36.646676  -0.113721  42.477845   0.052132   4.007726   2.406395  -1.517588  -5.183515 -13.775083  -2.668640  -2.192752 -11.937441 -30.573428  -0.164773 -46.102078  -0.066600  -0.782831  -4.528049   1.595572 -49.867533  -2.083177  -4.753588  83.049448  -0.003321  -0.000896 -40.804264  -7.056943  -2.758976   1.126775   0.000092  -0.000164 -58.372804  -2.528278   6.767882  95.090438  -0.000857  -0.000707 -18.387078   7.131221   4.671943 -37.880768  -0.004396   0.003222
 -2.346243   0.719932   3.930532   7.241453  -3.325384  -2.706234  25.711436   1.010777  -0.602056  -6.470259  -0.569226   1.505337 -15.437447   0.659643  -0.758892  -5.349854  11.914416   3.738840   2.782649  13.954872  36.892934  -0.127040  44.770391   0.053907   3.906913   2.280846  -1.437780  -5.244477 -13.505544  -1.045727  -2.585611 -11.974376 -30.164405  -0.180593 -47.967557  -0.071209  -0.905428  -4.664446   1.303624 -48.705303  -2.224353  -5.362932  81.779255  -0.001145   0.002216 -39.537429  -7.701384  -2.002690   0.031461   0.005721   0.008453 -56.992315  -2.498637   6.030319  93.243981   0.003716   0.005757 -15.406165   7.371940   4.063813 -48.105760  -0.038703   0.014958
 -2.344152   0.731015   3.932768   7.001254  -2.988403  -2.279750  25.468541   0.770118  -1.006585  -6.229018  -0.676819   1.349266 -15.231094   0.405256  -0.754268  -5.796877  11.556315   2.621755   3.234888  13.605670  37.111357  -0.133025  46.941740   0.050722   3.813788   2.403129  -1.279284  -5.314264 -13.187053   0.642155  -2.946067 -11.984670 -29.692490  -0.190238 -49.734275  -0.072558  -1.017374  -4.978795   1.010974 -47.370040  -2.373005  -6.075906  79.837930   0.000865   0.005813 -37.793013  -8.290201  -1.353639  -1.215811   0.009312   0.015847 -55.875946  -2.417532   5.109753  91.463029   0.006038   0.011472 -13.262216   7.499410   3.382427 -47.484770  -0.027610   0.012422
 -2.341976   0.744250   3.935112   6.886705  -2.677361  -1.812454  25.082026   0.553989  -1.436497  -5.999446  -0.773413   1.162860 -14.993655   0.168620  -0.759279  -6.173364  11.143574   1.496208   3.703334  13.230400  37.295394  -0.136389  48.960733   0.048104   3.726767   2.522070  -1.062894  -5.374065 -12.806514   2.324296  -3.260123 -11.948044 -29.195311  -0.196101 -51.378817  -0.073696  -1.121736  -5.288618   0.753784 -45.930382  -2.513879  -6.762404  77.382289   0.002213   0.009306 -35.774405  -8.816767  -0.777646  -2.469602   0.011008   0.021019 -54.767388  -2.306917   4.188117  89.310448   0.007948   0.017652 -10.572277   7.587001   2.758105 -46.987969  -0.019597   0.009759
 -2.339734   0.758634   3.937763   6.885386  -2.404544  -1.332457  24.522179   0.363695  -1.865521  -5.842613  -0.855129   0.961140 -14.748566  -0.051419  -0.768686  -6.498736  10.692118   0.364845   4.178057  12.835382  37.441443  -0.140311  50.835910   0.048632   3.644002   2.585423  -0.817987  -5.426584 -12.372599   3.978607  -3.530495 -11.868283 -28.686766  -0.200368 -52.905311  -0.076020  -1.220635  -5.542764   0.525560 -44.440051  -2.659909  -7.409729  74.585779   0.002779   0.012503 -33.598013  -9.284149  -0.254984  -3.711196   0.011401   0.024385 -53.619859  -2.186856   3.301392  86.872393   0.009275   0.023702  -7.715916   7.631881   2.187823 -46.590494  -0.013820   0.007396
 -2.337375   0.772901   3.941027   6.999257  -2.230891  -0.933130  23.713199   0.231315  -2.223417  -5.806015  -0.903297   0.774750 -14.499114  -0.254856  -0.777894  -6.789045  10.213863  -0.789598   4.651578  12.427325  37.540472  -0.148158  52.580977   0.055014   3.565651   2.606039  -0.550457  -5.471195 -11.881997   5.600405  -3.756537 -11.747027 -28.176468  -0.205336 -54.323519  -0.080651  -1.315536  -5.739392   0.300707 -42.988116  -2.842158  -7.938332  71.669421   0.002933   0.015774 -31.396831  -9.686190   0.238294  -4.931851   0.011034   0.026528 -52.221260  -2.093171   2.541397  83.796936   0.010402   0.031561  -4.290538   7.658761   1.698248 -43.579103   0.000956  -0.000411
 -2.334954   0.786999   3.944687   7.146596  -2.060561  -0.507881  22.812713   0.096204  -2.598070  -5.890010  -0.956493   0.587440 -14.276255  -0.446078  -0.784579  -7.071950   9.737780  -1.929477   5.100288  12.018334  37.596930  -0.157555  54.203866   0.064371   3.490875   2.580489  -0.355550  -5.540712 -11.391247   7.182070  -3.969547 -11.609731 -27.648944  -0.210209 -55.638474  -0.086813  -1.404469  -5.878621   0.153886 -41.555412  -3.040894  -8.490266  68.728066   0.002712   0.018813 -29.110731 -10.074364   0.712448  -3.916192   0.007599   0.015390 -50.900820  -2.026364   1.794363  81.036999   0.010614   0.036028  -1.497747   7.670781   1.220044 -46.812673  -0.011227   0.006057
 -2.333259   0.802646   3.949593   6.695706  -2.061147  -0.792235  21.700415   0.124465  -2.280446  -4.992262  -1.010903   0.381946 -13.510267  -0.685903  -0.836939  -6.954906   9.544965  -4.062190   5.698589  12.084630  38.326091  -0.139181  55.199206   0.050479   3.455569   3.017397  -0.374463  -5.096187 -10.458059   9.474191  -3.635873 -11.558299 -27.558100  -0.196971 -57.216492  -0.065576  -1.406996  -6.338966   0.599809 -39.113647  -3.395897  -8.197889  65.346043  -0.002010   0.014744 -25.933667 -10.289477   1.685200  -6.987092   0.019946   0.019235 -48.937219  -2.297957   1.809199  78.493745   0.008653   0.034509   0.898538   7.651021   0.689563 -46.450213  -0.007715   0.004912
 -2.331793   0.819266   3.955214   6.187959  -2.202492  -1.097392  20.448546   0.171183  -2.007455  -4.032843  -1.023317   0.177415 -12.694614  -0.923143  -0.878673  -6.744620   9.228348  -6.176680   6.370554  12.085965  38.996526  -0.124734  56.102098   0.041174   3.437837   3.316942  -0.007026  -4.619670  -9.342189  11.683441  -3.199364 -11.402083 -27.474355  -0.183640 -58.689838  -0.049857  -1.390127  -6.873310   0.617674 -36.633628  -3.782363  -7.835305  61.884643  -0.002063   0.014506 -22.434141 -10.447126   2.662160  -8.708485   0.023457   0.022014 -46.774219  -2.572640   1.920185  75.727551   0.008996   0.035328   3.632437   7.647385   0.188780 -46.160243  -0.005375   0.003624
 -2.330550   0.836334   3.961377   5.699372  -2.429190  -1.386801  19.095434   0.221548  -1.782678  -3.179624  -1.024195  -0.042679 -11.914778  -1.146343  -0.913926  -6.509548   8.809299  -8.217859   7.065030  12.020458  39.596264  -0.114848  56.920619   0.036955   3.422581   3.470516   0.463027  -4.187448  -8.145111  13.766900  -2.734364 -11.170717 -27.381320  -0.173924 -60.041679  -0.042474  -1.373473  -7.295872   0.487836 -34.263773  -4.156783  -7.468063  58.481990  -0.000112   0.016930 -18.945040 -10.532677   3.577049  -7.942370   0.015583   0.014276 -44.516180  -2.847249   2.066726  72.766067   0.011045   0.038196   6.592040   7.641880  -0.293060 -45.928258  -0.003789   0.002415
 -2.329584   0.853575   3.968006   5.257824  -2.692030  -1.677731  17.652380   0.261293  -1.581263  -2.473468  -1.031001  -0.265477 -11.187578  -1.355222  -0.944366  -6.281370   8.328083 -10.176846   7.755023  11.908741  40.126894  -0.108636  57.665307   0.036603   3.409427   3.502239   0.925025  -3.820494  -6.929131  15.727804  -2.272142 -10.898841 -27.277505  -0.168270 -61.286362  -0.042196  -1.358399  -7.604919   0.329601 -31.986497  -4.521590  -7.069191  55.357501   0.002176   0.019379 -15.565940 -10.531020   4.439949  -5.827891   0.004062   0.002807 -42.213526  -3.125633   2.252857  69.633957   0.013560   0.041962   9.723869   7.633741  -0.758817 -45.742661  -0.002718   0.001450
 -2.328847   0.870841   3.974974   4.873196  -2.995520  -1.982160  16.142196   0.294614  -1.385763  -1.921151  -1.042347  -0.482901 -10.516534  -1.550182  -0.971054  -6.080487   7.821750 -12.056337   8.419947  11.770008  40.589349  -0.105062  58.347807   0.038838   3.398926   3.449644   1.331159  -3.523606  -5.732465  17.575702  -1.829587 -10.609790 -27.163484  -0.165913 -62.438521  -0.046945  -1.344658  -7.837078   0.192699 -29.830592  -4.864859  -6.642159  52.485252   0.004158   0.021899 -12.408853 -10.481872   5.244405  -3.859401  -0.004620  -0.005395 -39.887681  -3.403464   2.489837  66.340571   0.016205   0.046566  13.005733   7.624813  -1.209871 -45.594173  -0.001995   0.000714
 -2.328301   0.887989   3.982202   4.544756  -3.336780  -2.306192  14.582967   0.319634  -1.186745  -1.512697  -1.058603  -0.686728  -9.898880  -1.732250  -0.993569  -5.915522   7.314047 -13.859581   9.048408  11.617209  40.988145  -0.103229  58.978157   0.042622   3.390803   3.348473   1.662637  -3.293900  -4.578979  19.322352  -1.415381 -10.318918 -27.039666  -0.165963 -63.510065  -0.054956  -1.331934  -8.027030   0.094049 -27.804485  -5.182917  -6.198104  49.841031   0.005515   0.024465  -9.463750 -10.394825   5.991324  -2.060752  -0.010745  -0.011151 -37.548480  -3.678566   2.779414  62.897102   0.018715   0.051943  16.424814   7.616122  -1.647013 -45.475375  -0.001506   0.000174
 -2.329213   0.905031   3.989188   4.482941  -3.740281  -4.741813  12.724257   0.518134   1.205817  -1.248030  -1.056108  -0.127700  -8.947604  -1.668249  -1.811301  -4.531144   7.278640 -16.406552   9.477063  11.926972  41.087714  -0.071156  58.249449   0.032772   3.517260   3.842460   1.171834  -2.483360  -3.241598  20.811392   0.082738  -9.690966 -27.320008  -0.136439 -64.209179  -0.036020  -1.306245  -8.914393   0.751126 -26.408963  -6.273219  -3.272181  49.513648   0.005619   0.019091  -8.323832 -10.771895   6.649506  -0.542951  -0.019149  -0.015433 -35.832073  -4.528732   5.462230  60.205635   0.013373   0.032755  19.564576   7.171046  -2.006113 -45.380330  -0.001083   0.000268
